<?xml version="1.0" ?><!DOCTYPE svg  PUBLIC '-//W3C//DTD SVG 1.1//EN'  'http://www.w3.org/Graphics/SVG/1.1/DTD/svg11.dtd'><svg height="512px" id="Layer_1" style="enable-background:new 0 0 512 512;" version="1.1" viewBox="0 0 512 512" width="512px" xml:space="preserve" xmlns="http://www.w3.org/2000/svg" xmlns:xlink="http://www.w3.org/1999/xlink"><g><g><path d="M27.192,264.862c-0.885,0-1.592-0.708-1.592-1.592c0-0.885,0.707-1.593,1.592-1.593h457.615    c0.885,0,1.593,0.708,1.593,1.593c0,0.884-0.708,1.592-1.593,1.592H27.192z" style="fill:#141515;"/></g><g><path d="M62.216,263.801c-0.354-0.531-0.178-1.239,0.354-1.592c0.531-0.354,1.238,0,1.592,0.531    l5.837,10.083l19.104-53.068c0.178-0.707,0.885-1.061,1.415-0.707c0.531,0,0.885,0.531,0.885,0.884l9.376,46.346l9.198-42.1    c0.177-0.708,0.707-1.061,1.415-0.885c0.531,0,0.884,0.531,0.884,1.061l22.996,113.033l38.386-145.758    c0.177-0.707,0.707-1.061,1.414-0.885c0.354,0.178,0.708,0.531,0.885,0.885l22.642,114.094l26.18-84.908    c0.178-0.707,0.885-1.061,1.415-0.885c0.531,0.178,0.707,0.532,0.885,0.885l22.996,116.747l30.07-142.22    c0-0.531,0.708-0.884,1.415-0.884c0.354,0.177,0.708,0.531,0.885,0.884l26.887,123.116l29.895-107.195    c0.176-0.707,0.885-1.061,1.415-0.885c0.531,0.178,0.884,0.531,0.884,0.885l30.956,126.299l33.963-169.283    c0.177-0.531,0.707-1.061,1.414-0.885c0.531,0,0.885,0.531,0.885,0.885l23.35,148.941l14.504-86.323    c0.178-0.531,0.708-1.061,1.415-0.885c0.354,0,0.885,0.354,0.885,0.885l10.967,51.122l9.198-31.133    c0.178-0.707,0.885-1.061,1.415-0.885c0.531,0.178,0.707,0.531,0.885,0.885l2.299,12.205c0.178,0.531-0.353,1.239-0.884,1.415    c-0.708,0-1.415-0.354-1.415-1.061l-1.415-7.252l-9.198,30.955c-0.178,0.354-0.531,0.708-0.885,0.885    c-0.708,0.177-1.239-0.354-1.415-0.885l-10.613-49.706l-14.505,87.384c-0.176,0.531-0.531,0.885-1.061,1.061    c-0.531,0-1.238-0.353-1.238-1.061l-23.527-149.65l-33.786,168.047c-0.178,0.353-0.354,0.884-0.885,0.884    c-0.708,0.178-1.239-0.177-1.415-0.884l-31.133-127.008L310.216,323.59c0,0.531-0.354,0.884-0.885,0.884    c-0.531,0.178-1.238-0.177-1.414-0.884l-26.711-122.231l-30.07,142.219c-0.178,0.531-0.531,0.885-0.885,1.062    c-0.708,0-1.239-0.354-1.415-1.062l-23.173-117.632l-26.18,84.731c0,0.531-0.354,0.885-0.885,0.885    c-0.531,0.176-1.238-0.178-1.415-0.885l-22.642-113.564L136.157,342.87c0,0.354-0.354,0.707-0.885,0.885    c-0.531,0.177-1.238-0.354-1.415-0.885l-22.818-112.679l-9.022,42.1c-0.176,0.531-0.531,0.884-0.885,0.884    c-0.707,0.178-1.415-0.177-1.415-0.884l-9.905-47.76l-18.397,51.475c0,0.177-0.177,0.531-0.531,0.531    c-0.531,0.354-1.238,0.176-1.592-0.354L62.216,263.801z" style="fill:#141515;"/></g><g><path d="M473.133,262.916c0.354-0.707,0.885-0.885,1.592-0.707c0.531,0.177,0.885,0.884,0.708,1.414    l-9.552,27.949c-0.178,0.707-0.885,1.061-1.415,0.885c-0.531-0.178-0.707-0.531-0.885-1.061l-15.212-79.778l-15.212,58.374    c-0.178,0.707-0.885,1.061-1.415,0.885c-0.531-0.178-0.885-0.531-0.885-0.885l-12.029-73.233l-23.88,103.481    c-0.178,0.708-0.885,1.061-1.415,0.885c-0.531,0-0.707-0.354-0.885-0.707l-32.548-73.587l-22.818,56.958    c-0.176,0.708-0.885,0.885-1.415,0.708c-0.353,0-0.531-0.177-0.531-0.531l0,0l-26.534-42.985l-23.349,59.436    c-0.177,0.707-0.885,0.884-1.592,0.707c-0.354-0.177-0.531-0.354-0.708-0.707l-30.248-71.818l-27.064,61.735    c-0.177,0.707-0.884,0.884-1.592,0.707c-0.177-0.176-0.354-0.354-0.531-0.531l-30.425-54.305l-32.018,66.334    c-0.176,0.707-0.885,0.885-1.415,0.707c-0.354-0.177-0.531-0.531-0.707-0.707l-33.433-86.853l-24.057,81.9    c-0.176,0.707-0.884,1.061-1.592,0.885c-0.354-0.178-0.707-0.531-0.707-0.885l-12.206-50.413l-18.572,57.665    c-0.178,0.531-0.885,0.885-1.415,0.708c-0.354-0.178-0.708-0.531-0.708-0.885l-18.927-63.15l-10.26,22.289    c-0.177,0.531-0.885,0.884-1.592,0.531c-0.531-0.178-0.707-0.885-0.531-1.592l11.498-24.942c0.177-0.354,0.354-0.531,0.707-0.707    c0.708-0.178,1.239,0.176,1.415,0.707l18.75,62.62l18.574-58.021c0.178-0.354,0.531-0.707,0.885-0.885    c0.708,0,1.239,0.354,1.415,0.885l12.205,50.413l23.881-81.192c0.177-0.354,0.353-0.708,0.707-0.708    c0.531-0.353,1.239,0,1.592,0.532l33.609,87.737l31.84-66.158c0-0.176,0.178-0.353,0.532-0.531c0.531-0.177,1.238,0,1.592,0.531    l30.248,54.305l27.241-62.264c0-0.178,0.177-0.354,0.531-0.531c0.531-0.354,1.239,0,1.592,0.531l30.248,71.818l23.35-58.905    c0-0.177,0.176-0.353,0.354-0.531c0.707-0.353,1.414-0.177,1.768,0.354l26.357,42.984l22.995-57.489    c0-0.177,0.178-0.531,0.531-0.707c0.708-0.178,1.415,0,1.592,0.707l32.195,73.055l24.587-105.956    c0.178-0.531,0.531-0.885,1.062-0.885c0.531-0.177,1.238,0.354,1.238,0.885l12.029,73.586l15.212-58.02    c0-0.531,0.354-0.885,0.885-0.885c0.707-0.177,1.238,0.176,1.415,0.885l15.389,80.661L473.133,262.916z" style="fill:#141515;"/></g></g></svg>