<?xml version="1.0" ?><!DOCTYPE svg  PUBLIC '-//W3C//DTD SVG 1.1//EN'  'http://www.w3.org/Graphics/SVG/1.1/DTD/svg11.dtd'><svg enable-background="new 0 0 512 512" height="512px" id="Layer_1" version="1.1" viewBox="0 0 512 512" width="512px" xml:space="preserve" xmlns="http://www.w3.org/2000/svg" xmlns:xlink="http://www.w3.org/1999/xlink"><g><g id="device_x5F_sms"><path d="M349,350.211V434H88V48h261v20.625c8.486,0.872,16.836,2.197,25,3.965V27.946     C374,16.93,365.07,8,354.054,8H82.946C71.93,8,63,16.93,63,27.946v452.108C63,491.07,71.93,500,82.946,500h271.108     C365.07,500,374,491.07,374,480.054V346.246C365.836,348.014,357.486,349.34,349,350.211z M189,21h60v14h-60V21z      M218.738,485.875c-9.941,0-18-8.059-18-18s8.059-18,18-18s18,8.059,18,18S228.679,485.875,218.738,485.875z" fill="#333333"/><path d="M323.154,82.379c-92.376,0-167.262,56.878-167.262,127.04c0,39.194,23.374,74.237,60.106,97.541     c-4.232,15.693-12.413,49.233-12.413,49.233l72.786-24.778c14.847,3.279,30.543,5.044,46.783,5.044     c92.376,0,167.262-56.878,167.262-127.04S415.53,82.379,323.154,82.379z M322.862,314.962     c-79.182,0-143.371-47.254-143.371-105.544s64.19-105.544,143.371-105.544s143.371,47.254,143.371,105.544     S402.044,314.962,322.862,314.962z" fill="#333333"/><g><path d="M233.42,224.103c3.191,1.938,9.8,4.216,14.928,4.216c5.242,0,7.407-1.823,7.407-4.672      c0-2.849-1.709-4.216-8.205-6.381c-11.509-3.875-15.954-10.142-15.839-16.751c0-10.37,8.888-18.232,22.677-18.232      c6.495,0,12.307,1.481,15.726,3.19l-3.077,11.965c-2.507-1.367-7.293-3.19-12.079-3.19c-4.216,0-6.609,1.709-6.609,4.558      c0,2.621,2.165,3.988,9.002,6.381c10.598,3.646,15.041,9.002,15.155,17.207c0,10.37-8.204,18.004-24.158,18.004      c-7.293,0-13.789-1.595-18.005-3.875L233.42,224.103z" fill="#333333"/><path d="M282.991,201.312c0-6.951-0.228-12.876-0.456-17.776h14.586l0.798,7.521h0.342      c2.394-3.532,7.293-8.774,16.865-8.774c7.179,0,12.876,3.646,15.27,9.458h0.228c2.052-2.849,4.559-5.128,7.18-6.724      c3.076-1.823,6.495-2.734,10.598-2.734c10.711,0,18.802,7.521,18.802,24.158v32.818h-16.865v-30.312      c0-8.09-2.621-12.763-8.204-12.763c-3.988,0-6.838,2.735-7.977,6.04c-0.456,1.253-0.684,3.077-0.684,4.444v32.59h-16.865      v-31.223c0-7.065-2.507-11.851-7.977-11.851c-4.444,0-7.065,3.418-8.091,6.268c-0.57,1.367-0.684,2.963-0.684,4.33v32.477      h-16.865V201.312z" fill="#333333"/><path d="M380.879,224.103c3.191,1.938,9.8,4.216,14.928,4.216c5.242,0,7.407-1.823,7.407-4.672      c0-2.849-1.709-4.216-8.204-6.381c-11.51-3.875-15.954-10.142-15.84-16.751c0-10.37,8.889-18.232,22.677-18.232      c6.495,0,12.307,1.481,15.726,3.19l-3.077,11.965c-2.507-1.367-7.293-3.19-12.079-3.19c-4.216,0-6.609,1.709-6.609,4.558      c0,2.621,2.165,3.988,9.003,6.381c10.598,3.646,15.041,9.002,15.155,17.207c0,10.37-8.204,18.004-24.158,18.004      c-7.293,0-13.788-1.595-18.004-3.875L380.879,224.103z" fill="#333333"/></g></g></g></svg>